<?xml version="1.0" encoding="UTF-8"?>
<!DOCTYPE svg PUBLIC "-//W3C//DTD SVG 1.1//EN" "http://www.w3.org/Graphics/SVG/1.1/DTD/svg11.dtd">
<!-- Creator: CorelDRAW X6 -->
<svg xmlns="http://www.w3.org/2000/svg" xml:space="preserve" width="2250px" height="1350px" version="1.1" style="shape-rendering:geometricPrecision; text-rendering:geometricPrecision; image-rendering:optimizeQuality; fill-rule:evenodd; clip-rule:evenodd"
viewBox="0 0 2250 1350"
 xmlns:xlink="http://www.w3.org/1999/xlink">
 <defs>
  <style type="text/css">
   <![CDATA[
    .str3 {stroke:#252422;stroke-width:3.04724;stroke-linecap:round;stroke-linejoin:round}
    .str0 {stroke:#252422;stroke-width:3.32244}
    .str1 {stroke:#252422;stroke-width:3.32244;stroke-linecap:round;stroke-linejoin:round}
    .str2 {stroke:#252422;stroke-width:3.54213;stroke-linecap:round;stroke-linejoin:round}
    .fil0 {fill:none}
    .fil3 {fill:#252422}
    .fil1 {fill:#7C2F66;fill-rule:nonzero}
    .fil6 {fill:#898989;fill-rule:nonzero}
    .fil7 {fill:#B9B323;fill-rule:nonzero}
    .fil9 {fill:#BDC4D6;fill-rule:nonzero}
    .fil5 {fill:#D88422;fill-rule:nonzero}
    .fil8 {fill:#E31E24;fill-rule:nonzero}
    .fil13 {fill:#898989;fill-rule:nonzero}
    .fil11 {fill:#FEFEFE;fill-rule:nonzero}
    .fil4 {fill:#54BFD6;fill-rule:nonzero}
    .fil10 {fill:#F2F2F2;fill-rule:nonzero}
    .fil2 {fill:white;fill-rule:nonzero}
    .fil12 {fill:#252422;fill-rule:nonzero}
   ]]>
  </style>
 </defs>
 <g id="Layer_x0020_1">
  <metadata id="CorelCorpID_0Corel-Layer"/>
  <polygon class="fil0" points="0,0 2250,0 2250,1350 0,1350 "/>
  <path class="fil1" d="M1084 749l-147 -84c-24,44 -82,29 -121,-3 0,0 0,0 -1,0 -17,-15 -40,-24 -64,-26l-440 0c-58,0 -103,54 -103,113 0,1 0,1 0,1 0,58 43,112 100,112l442 0c25,-1 47,-10 66,-25 0,0 0,0 0,0 39,-32 97,-47 121,-3l147 -85z"/>
  <path class="fil2" d="M739 825c-42,0 -76,-34 -76,-75 0,-42 34,-75 76,-75 41,0 75,33 75,75 0,41 -34,75 -75,75z"/>
  <g id="_645955288">
   <path class="fil3" d="M739 728c-12,0 -22,10 -22,22 0,12 10,21 22,21 11,0 21,-9 21,-21 0,-12 -10,-22 -21,-22zm0 46c-14,0 -25,-11 -25,-24 0,-14 11,-25 25,-25 13,0 24,11 24,25 0,13 -11,24 -24,24z"/>
   <path class="fil3" d="M726 747c-1,0 -1,0 -1,0 -1,0 -1,-1 -1,-2 2,-6 8,-10 15,-10 0,0 1,0 1,1 0,1 -1,2 -1,2 -6,0 -10,3 -12,8 0,1 -1,1 -1,1z"/>
   <path class="fil3" d="M739 765c-1,0 -2,-1 -2,-1 0,-1 1,-2 2,-2 5,0 11,-4 12,-10 0,0 1,-1 1,-1 1,0 2,1 2,2 -2,7 -8,12 -15,12z"/>
   <path class="fil3" d="M695 750c1,2 6,6 12,10 7,5 19,11 32,11 12,0 24,-6 31,-11 6,-4 11,-8 13,-10 -2,-2 -7,-6 -13,-10 -7,-6 -19,-12 -31,-12 -13,0 -25,7 -32,12 -6,4 -11,8 -12,10zm44 24c-14,0 -26,-6 -34,-11 -8,-6 -13,-12 -14,-12 0,-1 0,-2 0,-2 1,0 6,-6 14,-12 8,-5 20,-12 34,-12 13,0 25,7 33,12 8,6 14,12 14,12 0,0 0,1 0,2 0,0 -6,6 -14,12 -8,5 -20,11 -33,11z"/>
   <path class="fil3" d="M732 760c0,0 -1,0 -1,0l-5 -5c-1,-1 -1,-2 0,-2 1,-1 1,-1 2,0l4 4 17 -17c1,-1 2,-1 2,0 1,0 1,1 0,2l-18 18c0,0 0,0 -1,0z"/>
  </g>
  <polygon class="fil4" points="1166,749 1166,749 "/>
  <polygon class="fil4" points="1166,749 1166,749 "/>
  <path class="fil5" d="M1166 749l147 -84c24,44 82,29 121,-3 0,0 0,0 1,0 17,-15 39,-24 64,-26l440 0c58,0 103,54 103,113 0,1 0,1 0,1 0,58 -43,112 -100,112l-442 0c-25,-1 -48,-10 -66,-25 0,0 0,0 0,0 -39,-32 -97,-47 -121,-3l-147 -85z"/>
  <polygon class="fil4" points="1166,749 1166,749 1166,749 "/>
  <path class="fil6" d="M1896 451c0,58 -44,113 -100,113 0,0 -371,0 -418,0 -49,0 -87,54 -66,99 0,1 1,1 1,2l-147 84 0 -192c68,-12 84,-51 83,-104 -2,-58 43,-110 105,-115l442 0c56,0 100,54 100,113 0,0 0,0 0,0z"/>
  <path class="fil7" d="M1166 749l147 85c-1,1 -1,1 -1,2 -21,45 18,99 67,99 47,0 417,0 417,0 56,0 100,55 100,113 0,0 0,0 0,0 0,59 -46,113 -100,113l-440 0c-61,-3 -108,-55 -107,-115 1,-53 -15,-92 -83,-104l0 0c-31,-6 -51,-6 -82,0l0 -193 82 0 0 0z"/>
  <polygon class="fil4" points="1084,749 1084,749 "/>
  <polygon class="fil4" points="1084,749 1084,749 "/>
  <polygon class="fil4" points="1084,749 1084,749 1084,749 "/>
  <path class="fil8" d="M354 451c0,58 44,113 100,113 0,0 371,0 418,0 49,0 87,54 66,99 0,1 -1,1 -1,2l147 84 82 0 0 -192c-31,5 -51,5 -82,0 -68,-12 -84,-51 -83,-104 1,-58 -43,-110 -105,-115l-442 0c-56,0 -100,54 -100,113 0,0 0,0 0,0z"/>
  <path class="fil9" d="M1084 749l-147 85c1,1 1,1 1,2 21,45 -18,99 -67,99 -47,0 -417,0 -417,0 -56,0 -100,55 -100,113 0,0 0,0 0,0 0,59 46,113 100,113l440 0c61,-3 108,-55 107,-115 -1,-53 15,-92 83,-104l0 -193z"/>
  <g id="_645958672">
   <path class="fil2" d="M1127 891c-78,0 -141,-63 -141,-141 0,-78 63,-141 141,-141 77,0 141,63 141,141 0,78 -64,141 -141,141z"/>
  </g>
  <g id="_645958456">
   <path class="fil10" d="M1368 526c-42,0 -76,-33 -76,-75 0,-42 34,-75 76,-75 41,0 75,33 75,75 0,42 -34,75 -75,75z"/>
  </g>
  <g id="_645958504">
   <path class="fil2" d="M1522 825c-41,0 -75,-34 -75,-75 0,-42 34,-75 75,-75 42,0 75,33 75,75 0,41 -33,75 -75,75z"/>
  </g>
  <g id="_645959632">
   <path class="fil2" d="M1368 1122c-42,0 -76,-34 -76,-75 0,-42 34,-75 76,-75 41,0 75,33 75,75 0,42 -34,75 -75,75z"/>
  </g>
  <g id="_645959968">
   <path class="fil2" d="M885 1122c-42,0 -76,-34 -76,-75 0,-42 34,-75 76,-75 41,0 75,33 75,75 0,42 -34,75 -75,75z"/>
  </g>
  <g id="_645960616">
   <path class="fil2" d="M884 526c-41,0 -75,-33 -75,-75 0,-42 34,-75 75,-75 42,0 76,33 76,75 0,42 -34,75 -76,75z"/>
  </g>
  <path class="fil8" d="M789 178l-26 -26 25 -24 -15 0 -19 19 0 -19 -11 0 0 50 11 0 0 -21 20 21 15 0zm36 -15l0 -3c0,-12 -7,-19 -18,-19 -11,0 -18,9 -18,19 0,11 8,18 21,18 5,0 9,0 13,-2l-2 -7c-3,1 -7,1 -10,1 -8,0 -11,-3 -11,-7l25 0zm-10 -7l-15 0c0,-5 3,-7 7,-7 5,0 7,3 8,7zm49 -15l-10 0 -8 25 -9 -25 -10 0 14 37 -5 12 11 0 17 -49zm68 12c0,-15 -12,-25 -32,-25l-12 0 0 50 12 0c20,0 32,-10 32,-25zm-12 0c0,11 -8,15 -18,15l-2 0 0 -30 2 0c10,0 18,4 18,15zm50 25l0 -24c0,-9 -7,-13 -18,-13 -4,0 -9,0 -13,1l1 8c4,-1 7,-1 11,-1 7,0 8,1 8,5l0 3 -10 0c-8,0 -12,4 -12,11 0,6 5,10 12,10 5,0 8,-1 11,-4l0 4 10 0zm-11 -14c0,4 -2,7 -6,7 -4,0 -5,-1 -5,-4 0,-2 2,-4 5,-4l6 0 0 1zm39 14l-1 -8c-1,0 -2,0 -2,0 -2,0 -4,0 -4,-4l0 -18 6 0 0 -7 -6 0 0 -10 -11 0 0 10 -5 0 0 7 5 0 0 19c0,8 6,11 13,11 2,0 4,0 5,0zm39 0l0 -24c0,-9 -7,-13 -18,-13 -5,0 -9,0 -13,1l1 8c3,-1 7,-1 11,-1 6,0 8,1 8,5l0 3 -10 0c-8,0 -12,4 -12,11 0,6 5,10 12,10 5,0 8,-1 11,-4l0 4 10 0zm-11 -14c0,4 -3,7 -7,7 -3,0 -5,-1 -5,-4 0,-2 2,-4 5,-4l7 0 0 1zm90 14l0 -50 -10 0 -16 26 -15 -26 -11 0 0 50 11 0 0 -30 12 21 6 0 13 -21 0 30 10 0zm43 0l0 -24c0,-9 -7,-13 -18,-13 -4,0 -9,0 -13,1l1 8c4,-1 7,-1 11,-1 6,0 8,1 8,5l0 3 -10 0c-8,0 -12,4 -12,11 0,6 5,10 12,10 5,0 8,-1 11,-4l0 4 10 0zm-11 -14c0,4 -2,7 -6,7 -4,0 -5,-1 -5,-4 0,-2 1,-4 5,-4l6 0 0 1zm55 14l0 -23c0,-9 -4,-14 -12,-14 -6,0 -10,3 -13,6l0 -6 -10 0 0 37 11 0 0 -21c0,-4 4,-7 7,-7 4,0 6,3 6,7l0 21 11 0zm40 0l0 -24c0,-9 -7,-13 -18,-13 -4,0 -9,0 -13,1l1 8c4,-1 7,-1 11,-1 7,0 8,1 8,5l0 3 -10 0c-8,0 -12,4 -12,11 0,6 5,10 12,10 5,0 8,-1 11,-4l0 4 10 0zm-11 -14c0,4 -2,7 -6,7 -4,0 -5,-1 -5,-4 0,-2 2,-4 5,-4l6 0 0 1zm55 9l0 -32 -11 0 0 5c-3,-4 -7,-5 -11,-5 -10,0 -16,8 -16,18 0,9 6,18 16,18 4,0 8,-1 11,-5l0 3c0,5 -3,8 -12,8 -2,0 -5,0 -9,-1l-2 7c6,2 10,2 13,2 12,0 21,-6 21,-18zm-11 -13c0,6 -3,9 -8,9 -5,0 -8,-4 -8,-10 0,-6 3,-10 8,-10 5,0 8,4 8,11zm53 3l0 -3c0,-12 -6,-19 -17,-19 -11,0 -18,9 -18,19 0,11 7,18 21,18 5,0 8,0 12,-2l-2 -7c-3,1 -6,1 -10,1 -7,0 -11,-3 -11,-7l25 0zm-10 -7l-15 0c1,-5 4,-7 8,-7 4,0 7,3 7,7zm76 22l0 -23c0,-9 -4,-14 -12,-14 -5,0 -11,3 -13,6 -2,-4 -5,-6 -10,-6 -6,0 -10,3 -12,6l0 -6 -11 0 0 37 11 0 0 -21c0,-4 4,-7 7,-7 4,0 6,3 6,7l0 21 11 0 0 -21c0,-4 3,-7 6,-7 4,0 6,3 6,7l0 21 11 0zm43 -15l0 -3c0,-12 -7,-19 -18,-19 -11,0 -18,9 -18,19 0,11 8,18 21,18 5,0 9,0 13,-2l-2 -7c-4,1 -7,1 -11,1 -7,0 -10,-3 -10,-7l25 0zm-10 -7l-15 0c0,-5 3,-7 7,-7 5,0 7,3 8,7zm52 22l0 -23c0,-9 -3,-14 -11,-14 -6,0 -11,3 -13,6l0 -6 -10 0 0 37 10 0 0 -21c0,-4 4,-7 8,-7 4,0 6,3 6,7l0 21 10 0zm29 0l-1 -8c0,0 -1,0 -2,0 -2,0 -4,0 -4,-4l0 -18 7 0 0 -7 -7 0 0 -10 -11 0 0 10 -4 0 0 7 4 0 0 19c0,8 6,11 13,11 2,0 4,0 5,0zm-1013 22c-4,-2 -9,-2 -14,-2 -17,0 -28,11 -28,26 0,14 12,25 28,25 5,0 10,0 14,-2l-2 -9c-4,1 -7,1 -10,1 -13,0 -19,-6 -19,-15 0,-10 6,-16 19,-16 3,0 7,0 10,1l2 -9zm44 30c0,-10 -7,-19 -19,-19 -11,0 -19,9 -19,19 0,10 8,19 19,19 12,0 19,-9 19,-19zm-10 0c0,7 -4,11 -9,11 -5,0 -8,-4 -8,-11 0,-6 3,-10 8,-10 5,0 9,4 9,10zm53 19l0 -23c0,-9 -4,-15 -12,-15 -6,0 -10,3 -13,6l0 -5 -10 0 0 37 11 0 0 -21c0,-4 4,-7 7,-7 4,0 6,3 6,6l0 22 11 0zm39 -11c0,-7 -3,-8 -12,-12 -6,-2 -8,-2 -8,-4 0,-2 1,-3 5,-3 4,0 9,1 12,2l2 -8c-4,-1 -10,-2 -14,-2 -10,0 -15,4 -15,11 0,7 4,8 14,12 4,2 5,3 5,4 0,2 0,3 -5,3 -4,0 -9,-1 -13,-3l-2 8c4,2 10,3 15,3 10,0 16,-4 16,-11zm19 11l0 -37 -11 0 0 37 11 0zm0 -43l0 -9 -11 0 0 9 11 0zm45 43l0 -50 -11 0 0 18c-3,-4 -7,-6 -11,-6 -10,0 -16,10 -16,19 0,9 6,19 16,19 4,0 8,-2 11,-5l0 5 11 0zm-11 -19c0,7 -4,11 -8,11 -5,0 -8,-5 -8,-11 0,-6 3,-10 8,-10 5,0 8,4 8,10l0 0zm54 3l0 -2c0,-12 -7,-20 -18,-20 -11,0 -18,9 -18,19 0,12 8,19 21,19 5,0 9,0 13,-2l-2 -8c-4,1 -7,2 -11,2 -7,0 -10,-3 -10,-8l25 0zm-11 -6l-14 0c0,-5 3,-8 7,-8 5,0 7,3 7,8zm42 -15c-1,-1 -2,-1 -3,-1 -5,0 -8,4 -10,7l0 -6 -10 0 0 37 11 0 0 -17c0,-6 3,-11 9,-11 1,0 2,0 3,0l0 -9zm37 37l0 -24c0,-10 -7,-14 -18,-14 -4,0 -9,1 -13,2l1 7c4,0 7,0 11,0 7,0 8,1 8,5l0 2 -10 0c-8,0 -12,4 -12,11 0,6 5,11 12,11 5,0 8,-1 11,-4l0 4 10 0zm-11 -14c0,4 -2,7 -6,7 -4,0 -5,-1 -5,-4 0,-3 2,-4 5,-4l6 0 0 1zm39 14l-1 -8c-1,0 -2,0 -2,0 -2,0 -4,-1 -4,-4l0 -18 6 0 0 -7 -6 0 0 -10 -11 0 0 10 -5 0 0 7 5 0 0 19c0,8 6,11 13,11 2,0 4,0 5,0zm19 0l0 -37 -11 0 0 37 11 0zm0 -43l0 -9 -11 0 0 9 11 0zm46 24c0,-10 -8,-19 -19,-19 -12,0 -19,9 -19,19 0,10 7,19 19,19 11,0 19,-9 19,-19zm-11 0c0,7 -3,11 -8,11 -5,0 -9,-4 -9,-11 0,-6 4,-10 9,-10 5,0 8,4 8,10zm53 19l0 -23c0,-9 -4,-15 -12,-15 -5,0 -10,3 -12,6l0 -5 -11 0 0 37 11 0 0 -21c0,-4 4,-7 8,-7 4,0 5,3 5,6l0 22 11 0zm39 -11c0,-7 -3,-8 -11,-12 -7,-2 -8,-2 -8,-4 0,-2 1,-3 5,-3 4,0 9,1 12,2l1 -8c-4,-1 -10,-2 -13,-2 -11,0 -16,4 -16,11 0,7 4,8 14,12 5,2 6,3 6,4 0,2 -1,3 -6,3 -3,0 -8,-1 -13,-3l-2 8c5,2 11,3 16,3 9,0 15,-4 15,-11zm69 11l-19 -50 -10 0 -19 50 11 0 3 -11 19 0 4 11 11 0zm-18 -19l-13 0 7 -20 6 20zm50 17l-1 -7c-3,0 -5,1 -7,1 -8,0 -11,-5 -11,-11 0,-6 3,-10 11,-10 2,0 4,0 7,1l1 -8c-3,-1 -6,-2 -9,-2 -12,0 -21,9 -21,19 0,11 9,19 21,19 3,0 6,0 9,-2zm33 -35c-1,-1 -2,-1 -3,-1 -5,0 -9,4 -10,7l0 -6 -11 0 0 37 11 0 0 -17c0,-6 4,-11 10,-11 1,0 2,0 3,0l0 -9zm42 18c0,-10 -8,-19 -19,-19 -12,0 -19,9 -19,19 0,10 7,19 19,19 11,0 19,-9 19,-19zm-11 0c0,7 -3,11 -8,11 -6,0 -9,-4 -9,-11 0,-6 3,-10 9,-10 5,0 8,4 8,10zm47 8c0,-7 -2,-8 -11,-12 -6,-2 -8,-2 -8,-4 0,-2 1,-3 5,-3 4,0 9,1 12,2l1 -8c-4,-1 -10,-2 -13,-2 -10,0 -16,4 -16,11 0,7 4,8 14,12 5,2 6,3 6,4 0,2 -1,3 -5,3 -4,0 -9,-1 -14,-3l-2 8c5,2 11,3 16,3 9,0 15,-4 15,-11zm37 0c0,-7 -2,-8 -11,-12 -6,-2 -8,-2 -8,-4 0,-2 1,-3 5,-3 4,0 9,1 12,2l1 -8c-4,-1 -10,-2 -13,-2 -10,0 -16,4 -16,11 0,7 4,8 14,12 5,2 6,3 6,4 0,2 -1,3 -5,3 -4,0 -9,-1 -14,-3l-2 8c5,2 11,3 16,3 9,0 15,-4 15,-11zm44 11l-1 -8c-1,0 -2,0 -2,0 -2,0 -4,-1 -4,-4l0 -18 6 0 0 -7 -6 0 0 -10 -11 0 0 10 -5 0 0 7 5 0 0 19c0,8 6,11 13,11 2,0 4,0 5,0zm43 0l0 -23c0,-9 -4,-15 -12,-15 -5,0 -10,3 -12,6l0 -18 -11 0 0 50 11 0 0 -21c0,-4 4,-7 7,-7 4,0 6,3 6,6l0 22 11 0zm43 -16l0 -2c0,-12 -7,-20 -18,-20 -11,0 -18,9 -18,19 0,12 8,19 21,19 5,0 9,0 13,-2l-2 -8c-4,1 -7,2 -11,2 -7,0 -10,-3 -10,-8l25 0zm-11 -6l-14 0c0,-5 3,-8 7,-8 5,0 7,3 7,8zm83 22l0 -50 -11 0 0 33 -24 -33 -11 0 0 50 11 0 0 -33 24 33 11 0zm57 -34c0,-9 -7,-16 -17,-16l-26 0 0 50 11 0 0 -17 15 0c10,0 17,-8 17,-17zm-12 0c0,4 -3,7 -7,7l-13 0 0 -14 13 0c4,0 7,3 7,7zm32 34l0 -50 -11 0 0 50 11 0zm74 -34c0,-9 -7,-16 -17,-16l-26 0 0 50 11 0 0 -17 15 0c10,0 17,-8 17,-17zm-12 0c0,4 -3,7 -7,7l-13 0 0 -14 13 0c4,0 7,3 7,7zm42 -3c-1,-1 -2,-1 -3,-1 -5,0 -9,4 -10,7l0 -6 -11 0 0 37 11 0 0 -17c0,-6 4,-11 10,-11 0,0 2,0 3,0l0 -9zm42 18c0,-10 -8,-19 -19,-19 -12,0 -20,9 -20,19 0,10 8,19 20,19 11,0 19,-9 19,-19zm-11 0c0,7 -3,11 -8,11 -6,0 -9,-4 -9,-11 0,-6 3,-10 9,-10 5,0 8,4 8,10zm46 17l-2 -7c-3,0 -5,1 -7,1 -7,0 -11,-5 -11,-11 0,-6 4,-10 11,-10 2,0 4,0 7,1l2 -8c-4,-1 -6,-2 -10,-2 -12,0 -21,9 -21,19 0,11 9,19 21,19 3,0 7,0 10,-2zm41 -14l0 -2c0,-12 -7,-20 -17,-20 -12,0 -19,9 -19,19 0,12 8,19 22,19 4,0 8,0 12,-2l-2 -8c-3,1 -7,2 -10,2 -8,0 -11,-3 -11,-8l25 0zm-10 -6l-15 0c1,-5 4,-8 8,-8 4,0 6,3 7,8zm47 11c0,-7 -3,-8 -12,-12 -6,-2 -8,-2 -8,-4 0,-2 1,-3 6,-3 3,0 9,1 11,2l2 -8c-4,-1 -10,-2 -13,-2 -11,0 -16,4 -16,11 0,7 4,8 14,12 4,2 6,3 6,4 0,2 -1,3 -6,3 -3,0 -9,-1 -13,-3l-2 8c5,2 10,3 15,3 10,0 16,-4 16,-11zm37 0c0,-7 -3,-8 -12,-12 -6,-2 -8,-2 -8,-4 0,-2 1,-3 6,-3 3,0 8,1 11,2l2 -8c-4,-1 -10,-2 -14,-2 -10,0 -15,4 -15,11 0,7 4,8 14,12 4,2 6,3 6,4 0,2 -1,3 -6,3 -3,0 -9,-1 -13,-3l-2 8c5,2 10,3 15,3 10,0 16,-4 16,-11z"/>
  <path class="fil11" d="M459 446c0,-5 -4,-9 -10,-9l-15 0 0 29 7 0 0 -10 8 0c6,0 10,-4 10,-10zm-6 0c0,3 -2,5 -5,5l-7 0 0 -9 7 0c3,0 5,2 5,4zm24 -2c0,0 -1,0 -1,0 -4,0 -6,2 -6,4l0 -3 -7 0 0 21 7 0 0 -9c0,-4 2,-7 5,-7 1,0 2,0 2,0l0 -6zm25 11c0,-6 -5,-11 -11,-11 -7,0 -12,5 -12,11 0,6 5,12 12,12 6,0 11,-6 11,-12zm-6 0c0,4 -2,7 -5,7 -3,0 -5,-3 -5,-7 0,-3 2,-6 5,-6 3,0 5,3 5,6zm31 11l0 -29 -7 0 0 10c-1,-2 -3,-3 -6,-3 -6,0 -9,6 -9,11 0,6 3,12 9,12 3,0 5,-2 6,-4l0 3 7 0zm-7 -11c0,4 -1,7 -4,7 -3,0 -5,-3 -5,-7 0,-3 2,-6 5,-6 3,0 4,3 4,6l0 0zm33 11l0 -21 -6 0 0 12c0,2 -2,4 -4,4 -3,0 -4,-2 -4,-4l0 -12 -6 0 0 13c0,5 2,9 7,9 3,0 6,-2 7,-4l0 3 6 0zm23 -1l-1 -4c-2,0 -3,1 -4,1 -5,0 -7,-3 -7,-7 0,-3 2,-6 7,-6 1,0 2,0 4,1l1 -5c-2,-1 -4,-1 -6,-1 -7,0 -12,5 -12,11 0,7 5,12 12,12 2,0 4,-1 6,-2zm16 1l0 -4c-1,0 -1,0 -1,0 -2,0 -3,-1 -3,-3l0 -10 4 0 0 -4 -4 0 0 -6 -6 0 0 6 -3 0 0 4 3 0 0 11c0,5 3,7 7,7 1,0 3,-1 3,-1zm23 0l0 -29 -7 0 0 29 7 0zm28 0l0 -29 -7 0 0 10c-2,-2 -4,-3 -6,-3 -6,0 -9,6 -9,11 0,6 3,12 9,12 2,0 5,-2 6,-4l0 3 7 0zm-7 -11c0,4 -2,7 -4,7 -4,0 -5,-3 -5,-7 0,-3 1,-6 5,-6 2,0 4,3 4,6l0 0zm32 2l0 -1c0,-7 -4,-12 -10,-12 -7,0 -11,5 -11,11 0,7 5,12 13,12 2,0 5,-1 7,-2l-1 -4c-2,0 -4,1 -6,1 -5,0 -7,-2 -7,-5l15 0zm-6 -4l-9 0c1,-3 3,-4 5,-4 2,0 4,2 4,4zm29 13l0 -14c0,-5 -4,-8 -11,-8 -2,0 -5,0 -7,1l0 5c2,-1 4,-1 7,-1 3,0 5,1 5,3l0 2 -7 0c-4,0 -7,2 -7,6 0,4 3,7 8,7 2,0 4,-1 6,-3l0 2 6 0zm-6 -8c0,3 -2,4 -4,4 -2,0 -3,-1 -3,-2 0,-2 1,-2 3,-2l4 0 0 0zm22 8l0 -4c-1,0 -1,0 -1,0 -2,0 -3,-1 -3,-3l0 -10 4 0 0 -4 -4 0 0 -6 -6 0 0 6 -3 0 0 4 3 0 0 11c0,5 3,7 7,7 1,0 3,-1 3,-1zm12 0l0 -21 -7 0 0 21 7 0zm0 -25l0 -5 -7 0 0 5 7 0zm27 14c0,-6 -5,-11 -12,-11 -6,0 -11,5 -11,11 0,6 5,12 11,12 7,0 12,-6 12,-12zm-7 0c0,4 -2,7 -5,7 -3,0 -5,-3 -5,-7 0,-3 2,-6 5,-6 3,0 5,3 5,6zm32 11l0 -13c0,-5 -2,-9 -7,-9 -4,0 -6,2 -8,4l0 -3 -6 0 0 21 6 0 0 -12c0,-2 3,-4 5,-4 2,0 3,1 3,4l0 12 7 0z"/>
  <path class="fil12" d="M1508 443c0,-5 -4,-10 -10,-10l-15 0 0 30 6 0 0 -10 9 0c6,0 10,-5 10,-10zm-7 0c0,2 -2,4 -4,4l-8 0 0 -8 8 0c2,0 4,1 4,4zm25 -2c-1,0 -1,0 -2,0 -3,0 -5,2 -6,4l0 -4 -6 0 0 22 6 0 0 -10c0,-4 2,-7 6,-7 0,0 1,0 2,1l0 -6zm25 11c0,-6 -5,-11 -12,-11 -6,0 -11,5 -11,11 0,6 5,11 11,11 7,0 12,-5 12,-11zm-7 0c0,4 -2,6 -5,6 -3,0 -5,-2 -5,-6 0,-4 2,-6 5,-6 3,0 5,2 5,6zm31 11l0 -30 -6 0 0 11c-2,-2 -4,-3 -6,-3 -6,0 -10,5 -10,11 0,5 4,11 10,11 2,0 4,-1 6,-3l0 3 6 0zm-6 -11c0,4 -2,6 -5,6 -3,0 -4,-3 -4,-6 0,-3 1,-6 4,-6 3,0 5,2 5,6l0 0zm33 11l0 -22 -6 0 0 13c0,2 -3,3 -5,3 -2,0 -3,-1 -3,-3l0 -13 -7 0 0 14c0,5 3,8 7,8 4,0 6,-2 8,-3l0 3 6 0zm22 -1l-1 -5c-1,1 -2,1 -4,1 -4,0 -6,-2 -6,-6 0,-4 2,-6 6,-6 2,0 3,0 4,0l1 -4c-2,-1 -3,-1 -5,-1 -8,0 -13,5 -13,11 0,6 5,11 13,11 1,0 3,0 5,-1zm17 1l-1 -5c0,0 -1,0 -1,0 -1,0 -2,0 -2,-2l0 -11 3 0 0 -4 -3 0 0 -6 -7 0 0 6 -3 0 0 4 3 0 0 11c0,5 3,7 8,7 1,0 2,0 3,0zm41 0l-12 -30 -6 0 -11 30 7 0 2 -6 11 0 2 6 7 0zm-11 -11l-8 0 4 -12 4 12zm35 11l0 -14c0,-5 -3,-8 -7,-8 -4,0 -6,2 -8,3l0 -3 -6 0 0 22 6 0 0 -13c0,-2 3,-4 5,-4 2,0 3,2 3,4l0 13 7 0zm24 0l0 -14c0,-6 -5,-8 -11,-8 -3,0 -5,0 -8,1l1 4c2,0 4,0 6,0 4,0 5,0 5,3l0 1 -6 0c-4,0 -7,3 -7,7 0,3 3,6 7,6 3,0 5,-1 7,-3l0 3 6 0zm-7 -8c0,2 -1,4 -4,4 -2,0 -3,-1 -3,-2 0,-2 1,-3 3,-3l4 0 0 1zm22 8l0 -5c0,0 -1,0 -2,0 -2,0 -2,-1 -2,-3l0 -22 -6 0 0 23c0,5 3,7 7,7 1,0 3,0 3,0zm23 -22l-6 0 -5 15 -5 -15 -6 0 8 22 -2 7 6 0 10 -29zm21 15c0,-3 -2,-4 -7,-6 -4,-2 -5,-2 -5,-3 0,-1 0,-1 3,-1 2,0 5,0 7,1l1 -5c-3,-1 -6,-1 -8,-1 -6,0 -9,2 -9,6 0,4 2,5 8,7 3,1 3,2 3,3 0,1 0,1 -3,1 -2,0 -5,0 -8,-1l-1 4c3,1 6,2 9,2 6,0 10,-3 10,-7zm11 7l0 -22 -7 0 0 22 7 0zm0 -25l0 -6 -7 0 0 6 7 0zm23 18c0,-3 -2,-4 -7,-6 -4,-2 -5,-2 -5,-3 0,-1 1,-1 3,-1 3,0 6,0 7,1l1 -5c-2,-1 -6,-1 -8,-1 -6,0 -9,2 -9,6 0,4 3,5 9,7 2,1 3,2 3,3 0,1 -1,1 -3,1 -3,0 -6,0 -8,-1l-2 4c3,1 7,2 10,2 5,0 9,-3 9,-7z"/>
  <path class="fil12" d="M1660 721c0,-5 -4,-9 -10,-9l-16 0 0 29 7 0 0 -10 9 0c6,0 10,-4 10,-10zm-7 0c0,3 -2,5 -4,5l-8 0 0 -9 8 0c2,0 4,2 4,4zm25 -2c-1,0 -2,0 -2,0 -3,0 -5,3 -6,4l0 -3 -6 0 0 21 6 0 0 -9c0,-4 2,-7 6,-7 0,0 1,0 2,0l0 -6zm24 12c0,-6 -4,-12 -11,-12 -7,0 -11,6 -11,12 0,5 4,11 11,11 7,0 11,-6 11,-11zm-6 0c0,3 -2,6 -5,6 -3,0 -5,-3 -5,-6 0,-4 2,-7 5,-7 3,0 5,3 5,7zm31 10l0 -29 -6 0 0 10c-2,-2 -4,-3 -6,-3 -6,0 -10,6 -10,12 0,5 4,11 10,11 2,0 4,-2 6,-4l0 3 6 0zm-6 -10c0,3 -2,6 -5,6 -3,0 -4,-3 -4,-6 0,-4 1,-7 4,-7 3,0 5,3 5,7l0 0zm33 10l0 -21 -7 0 0 12c0,2 -2,4 -4,4 -2,0 -3,-1 -3,-4l0 -12 -7 0 0 13c0,5 2,9 7,9 3,0 6,-2 8,-4l0 3 6 0zm22 0l-1 -5c-1,1 -2,1 -4,1 -4,0 -6,-3 -6,-6 0,-4 2,-7 6,-7 2,0 3,1 4,1l1 -5c-2,0 -3,-1 -5,-1 -8,0 -13,5 -13,12 0,6 5,11 13,11 1,0 3,-1 5,-1zm17 0l-1 -4c0,0 -1,0 -1,0 -1,0 -3,-1 -3,-3l0 -10 4 0 0 -4 -4 0 0 -6 -6 0 0 6 -3 0 0 4 3 0 0 11c0,5 3,7 8,7 1,0 2,0 3,-1zm-133 32c0,-9 -7,-15 -19,-15l-7 0 0 30 7 0c12,0 19,-6 19,-15zm-7 0c0,6 -5,9 -10,9l-2 0 0 -18 2 0c5,0 10,3 10,9zm33 4c0,-6 -5,-11 -12,-11 -6,0 -11,5 -11,11 0,6 5,11 11,11 7,0 12,-5 12,-11zm-7 0c0,4 -2,6 -5,6 -3,0 -5,-2 -5,-6 0,-4 2,-6 5,-6 3,0 5,2 5,6zm27 10l-1 -5c-1,1 -2,1 -4,1 -4,0 -6,-3 -6,-6 0,-4 2,-6 6,-6 2,0 3,0 4,0l1 -4c-2,-1 -3,-1 -5,-1 -8,0 -13,5 -13,11 0,6 5,11 13,11 1,0 3,0 5,-1zm26 1l0 -22 -7 0 0 12c0,3 -2,4 -4,4 -2,0 -3,-1 -3,-4l0 -12 -7 0 0 14c0,5 3,8 7,8 4,0 6,-2 8,-4l0 4 6 0zm40 0l0 -14c0,-5 -2,-8 -7,-8 -3,0 -6,2 -8,3 -1,-2 -3,-3 -6,-3 -3,0 -5,1 -7,3l0 -3 -6 0 0 22 6 0 0 -13c0,-2 2,-4 4,-4 3,0 4,2 4,4l0 13 6 0 0 -13c0,-2 2,-4 4,-4 3,0 4,2 4,4l0 13 6 0zm25 -9l0 -2c0,-7 -4,-11 -10,-11 -7,0 -11,5 -11,11 0,7 5,11 13,11 3,0 5,0 7,-1l-1 -5c-2,1 -4,1 -6,1 -4,0 -6,-2 -6,-4l14 0zm-6 -4l-8 0c0,-3 2,-5 4,-5 3,0 4,2 4,5zm32 13l0 -14c0,-5 -3,-8 -7,-8 -4,0 -6,1 -8,3l0 -3 -6 0 0 22 6 0 0 -13c0,-2 3,-4 5,-4 2,0 3,2 3,4l0 13 7 0zm17 0l-1 -5c0,0 -1,0 -1,0 -1,0 -2,0 -2,-2l0 -11 3 0 0 -4 -3 0 0 -6 -7 0 0 6 -3 0 0 4 3 0 0 11c0,5 3,7 8,7 1,0 2,0 3,0zm23 0l0 -14c0,-6 -4,-8 -11,-8 -3,0 -5,0 -8,0l1 5c2,0 4,0 6,0 4,0 5,0 5,3l0 1 -6 0c-4,0 -7,2 -7,7 0,3 3,6 7,6 3,0 5,-1 7,-3l0 3 6 0zm-7 -8c0,2 -1,4 -4,4 -2,0 -3,-1 -3,-3 0,-1 2,-2 3,-2l4 0 0 1zm23 8l0 -5c-1,0 -1,0 -2,0 -1,0 -2,0 -2,-2l0 -11 4 0 0 -4 -4 0 0 -6 -6 0 0 6 -3 0 0 4 3 0 0 11c0,5 3,7 7,7 1,0 2,0 3,0zm11 0l0 -22 -6 0 0 22 6 0zm0 -26l0 -5 -6 0 0 5 6 0zm27 15c0,-6 -4,-11 -11,-11 -6,0 -11,5 -11,11 0,6 5,11 11,11 7,0 11,-5 11,-11zm-6 0c0,4 -2,6 -5,6 -3,0 -5,-2 -5,-6 0,-4 2,-6 5,-6 3,0 5,2 5,6zm31 11l0 -14c0,-5 -2,-8 -7,-8 -3,0 -6,1 -7,3l0 -3 -6 0 0 22 6 0 0 -13c0,-2 3,-4 5,-4 2,0 3,2 3,4l0 13 6 0z"/>
  <path class="fil12" d="M1501 1003c0,-3 -2,-6 -6,-7 3,-1 5,-4 5,-6 0,-5 -4,-8 -9,-8l-15 0 0 30 16 0c5,0 9,-5 9,-9zm-7 0c0,2 -1,3 -4,3l-8 0 0 -7 8 0c3,0 4,2 4,4zm-1 -12c0,2 -1,3 -4,3l-7 0 0 -7 7 0c3,0 4,2 4,4zm33 10c0,-6 -5,-11 -11,-11 -7,0 -11,5 -11,11 0,6 4,11 11,11 6,0 11,-5 11,-11zm-6 0c0,4 -2,6 -5,6 -3,0 -5,-2 -5,-6 0,-4 2,-6 5,-6 3,0 5,2 5,6zm42 11l0 -30 -6 0 -9 16 -9 -16 -7 0 0 30 7 0 0 -18 7 12 4 0 7 -12 0 18 6 0zm47 0l-8 -12c3,-1 5,-5 5,-8 0,-6 -4,-10 -10,-10l-16 0 0 30 7 0 0 -11 6 0 8 11 8 0zm-10 -20c0,2 -2,4 -4,4l-8 0 0 -9 8 0c2,0 4,2 4,5zm33 11l0 -2c0,-7 -4,-11 -11,-11 -6,0 -10,5 -10,11 0,7 4,11 12,11 3,0 5,0 7,-1l-1 -5c-2,1 -4,1 -6,1 -4,0 -6,-2 -6,-4l15 0zm-6 -4l-9 0c0,-3 2,-5 4,-5 3,0 4,2 5,5zm21 13l0 -5c-1,0 -2,0 -2,0 -2,0 -3,-1 -3,-3l0 -22 -6 0 0 23c0,5 3,7 8,7 0,0 2,0 3,0zm23 0l0 -14c0,-6 -4,-8 -11,-8 -3,0 -5,0 -8,0l1 5c2,0 4,0 6,0 4,0 5,0 5,3l0 1 -6 0c-4,0 -7,2 -7,7 0,3 3,6 7,6 3,0 5,-1 7,-3l0 3 6 0zm-7 -8c0,2 -1,4 -4,4 -2,0 -3,-1 -3,-3 0,-1 2,-2 3,-2l4 0 0 1zm23 8l0 -5c-1,0 -1,0 -2,0 -1,0 -2,0 -2,-2l0 -11 4 0 0 -4 -4 0 0 -6 -6 0 0 6 -3 0 0 4 3 0 0 11c0,5 3,7 7,7 1,0 2,0 3,0zm24 -9l0 -2c0,-7 -4,-11 -10,-11 -7,0 -11,5 -11,11 0,7 5,11 13,11 2,0 5,0 7,-1l-1 -5c-2,1 -4,1 -6,1 -5,0 -7,-2 -7,-4l15 0zm-6 -4l-9 0c1,-3 2,-5 5,-5 2,0 4,2 4,5zm31 13l0 -30 -6 0 0 11c-2,-2 -4,-3 -7,-3 -6,0 -9,5 -9,11 0,5 3,11 9,11 3,0 5,-1 7,-3l0 3 6 0zm-6 -11c0,4 -2,6 -5,6 -3,0 -5,-3 -5,-6 0,-4 2,-6 5,-6 3,0 5,2 5,6l0 0zm-230 28c-3,-1 -6,-1 -9,-1 -10,0 -16,7 -16,15 0,9 6,15 16,15 3,0 6,0 9,-1l-2 -5c-2,0 -4,1 -6,1 -7,0 -11,-4 -11,-10 0,-5 4,-9 11,-9 2,0 4,0 6,1l2 -6zm26 29l0 -14c0,-5 -2,-8 -7,-8 -3,0 -6,2 -8,4l0 -12 -6 0 0 30 7 0 0 -12c0,-3 2,-4 4,-4 2,0 3,1 3,3l0 13 7 0zm24 0l0 -14c0,-6 -4,-8 -11,-8 -2,0 -5,0 -8,1l1 4c2,0 4,0 7,0 3,0 4,1 4,3l0 1 -6 0c-4,0 -7,3 -7,7 0,3 3,6 7,6 3,0 5,-1 7,-2l0 2 6 0zm-7 -8c0,2 -1,4 -4,4 -2,0 -3,-1 -3,-2 0,-2 2,-3 3,-3l4 0 0 1zm32 8l0 -14c0,-5 -2,-8 -7,-8 -3,0 -6,2 -7,4l0 -4 -6 0 0 22 6 0 0 -12c0,-3 3,-4 5,-4 2,0 3,1 3,3l0 13 6 0zm27 -3l0 -19 -7 0 0 3c-1,-2 -3,-3 -6,-3 -6,0 -9,5 -9,11 0,5 3,11 9,11 3,0 5,-1 6,-3l0 1c0,3 -1,5 -6,5 -2,0 -4,0 -6,-1l-1 5c3,1 6,0 8,0 7,0 12,-3 12,-10zm-7 -8c0,4 -1,6 -4,6 -3,0 -5,-3 -5,-6 0,-4 2,-6 5,-6 3,0 4,2 4,6zm32 2l0 -2c0,-7 -4,-11 -10,-11 -7,0 -11,5 -11,11 0,7 5,11 13,11 2,0 5,0 7,-1l-1 -4c-2,0 -4,0 -6,0 -5,0 -7,-1 -7,-4l15 0zm-6 -4l-9 0c1,-3 3,-4 5,-4 2,0 4,1 4,4zm-113 59l0 -29 -7 0 -9 15 -9 -15 -6 0 0 29 6 0 0 -18 8 13 3 0 7 -13 0 18 7 0zm25 0l0 -14c0,-5 -4,-8 -11,-8 -2,0 -5,1 -7,1l0 5c2,-1 4,-1 7,-1 3,0 5,1 5,3l0 2 -7 0c-4,0 -7,2 -7,6 0,4 3,7 8,7 2,0 4,-1 6,-3l0 2 6 0zm-6 -8c0,3 -2,4 -4,4 -2,0 -3,-1 -3,-2 0,-2 1,-2 3,-2l4 0 0 0zm32 8l0 -13c0,-5 -2,-9 -7,-9 -3,0 -6,2 -8,4l0 -3 -6 0 0 21 7 0 0 -12c0,-2 2,-4 4,-4 2,0 3,1 3,4l0 12 7 0zm24 0l0 -14c0,-5 -4,-8 -11,-8 -2,0 -5,1 -8,1l1 5c2,-1 4,-1 7,-1 3,0 4,1 4,3l0 2 -6 0c-4,0 -7,2 -7,6 0,4 3,7 7,7 3,0 5,-1 7,-3l0 2 6 0zm-7 -8c0,3 -1,4 -4,4 -2,0 -3,-1 -3,-2 0,-2 2,-2 3,-2l4 0 0 0zm32 5l0 -18 -6 0 0 2c-2,-2 -4,-3 -6,-3 -6,0 -10,5 -10,11 0,6 4,11 10,11 2,0 4,-1 6,-3l0 1c0,3 -2,5 -7,5 -1,0 -3,0 -6,-1l0 5c3,1 5,1 7,1 8,0 12,-4 12,-11zm-6 -8c0,4 -2,6 -5,6 -3,0 -4,-3 -4,-6 0,-3 1,-6 4,-6 3,0 5,3 5,6zm32 2l0 -1c0,-7 -4,-12 -11,-12 -6,0 -10,6 -10,11 0,7 4,12 12,12 3,0 5,-1 7,-2l-1 -4c-2,0 -4,1 -6,1 -4,0 -6,-2 -6,-5l15 0zm-6 -4l-9 0c0,-3 2,-4 4,-4 3,0 4,2 5,4zm44 13l0 -13c0,-5 -2,-9 -7,-9 -3,0 -6,2 -7,4 -1,-2 -3,-4 -6,-4 -4,0 -6,2 -7,4l0 -3 -7 0 0 21 7 0 0 -12c0,-2 2,-4 4,-4 2,0 3,1 3,4l0 12 7 0 0 -12c0,-2 2,-4 4,-4 2,0 3,1 3,4l0 12 6 0zm26 -9l0 -1c0,-7 -4,-12 -11,-12 -6,0 -10,6 -10,11 0,7 4,12 12,12 3,0 5,-1 7,-2l-1 -4c-2,0 -4,1 -6,1 -4,0 -6,-2 -6,-5l15 0zm-6 -4l-9 0c0,-3 2,-4 4,-4 3,0 4,2 5,4zm31 13l0 -13c0,-5 -2,-9 -7,-9 -3,0 -6,2 -7,4l0 -3 -7 0 0 21 7 0 0 -12c0,-2 2,-4 4,-4 2,0 4,1 4,4l0 12 6 0zm17 0l-1 -4c0,0 -1,0 -1,0 -1,0 -2,-1 -2,-3l0 -10 4 0 0 -4 -4 0 0 -6 -7 0 0 6 -2 0 0 4 2 0 0 11c0,5 4,7 8,7 1,0 2,-1 3,-1z"/>
  <path class="fil12" d="M438 1015c0,-5 -4,-9 -10,-9l-15 0 0 29 6 0 0 -10 9 0c6,0 10,-4 10,-10zm-7 0c0,3 -2,5 -4,5l-8 0 0 -9 8 0c2,0 4,2 4,4zm25 -2c-1,0 -1,0 -2,0 -3,0 -5,3 -6,4l0 -3 -6 0 0 21 6 0 0 -9c0,-4 2,-7 6,-7 0,0 1,0 2,0l0 -6zm25 12c0,-6 -5,-12 -12,-12 -6,0 -11,6 -11,12 0,5 5,11 11,11 7,0 12,-6 12,-11zm-7 0c0,3 -2,6 -5,6 -3,0 -5,-3 -5,-6 0,-4 2,-7 5,-7 3,0 5,3 5,7zm31 10l0 -29 -6 0 0 11c-2,-3 -4,-4 -6,-4 -6,0 -10,6 -10,12 0,5 4,11 10,11 2,0 4,-2 6,-4l0 3 6 0zm-6 -10c0,3 -2,6 -5,6 -3,0 -4,-3 -4,-6 0,-4 1,-7 4,-7 3,0 5,3 5,7l0 0zm33 10l0 -21 -6 0 0 12c0,2 -3,4 -5,4 -2,0 -3,-1 -3,-4l0 -12 -7 0 0 13c0,5 3,9 7,9 4,0 6,-2 8,-4l0 3 6 0zm22 0l-1 -5c-1,1 -2,1 -4,1 -4,0 -6,-3 -6,-6 0,-4 2,-7 6,-7 2,0 3,1 4,1l1 -5c-2,0 -3,-1 -5,-1 -8,0 -13,5 -13,12 0,6 5,11 13,11 2,0 4,-1 5,-1zm17 0l-1 -4c0,0 -1,0 -1,0 -1,0 -2,-1 -2,-3l0 -10 3 0 0 -4 -3 0 0 -6 -7 0 0 6 -3 0 0 4 3 0 0 11c0,5 3,7 8,7 1,0 2,0 3,-1zm41 -14c0,-9 -7,-15 -18,-15l-7 0 0 29 7 0c11,0 18,-6 18,-14zm-6 0c0,6 -5,8 -11,8l-2 0 0 -17 2 0c6,0 11,2 11,9zm30 5l0 -1c0,-7 -4,-12 -10,-12 -7,0 -11,6 -11,12 0,6 5,11 13,11 3,0 5,-1 7,-1l-1 -5c-2,1 -4,1 -6,1 -5,0 -7,-2 -7,-5l15 0zm-6 -4l-9 0c1,-2 3,-4 5,-4 2,0 4,2 4,4zm28 7c0,-4 -2,-5 -7,-7 -3,-1 -5,-1 -5,-3 0,0 1,-1 4,-1 2,0 5,1 7,1l0 -4c-2,-1 -5,-2 -8,-2 -6,0 -9,2 -9,7 0,4 3,5 9,7 2,1 3,1 3,2 0,1 -1,2 -3,2 -2,0 -5,-1 -8,-2l-1 5c2,1 6,2 9,2 5,0 9,-3 9,-7zm11 6l0 -21 -6 0 0 21 6 0zm0 -25l0 -5 -6 0 0 5 6 0zm27 23l0 -19 -7 0 0 3c-1,-3 -4,-4 -6,-4 -6,0 -9,5 -9,11 0,6 3,11 9,11 2,0 5,-1 6,-3l0 1c0,4 -2,5 -6,5 -2,0 -4,0 -6,0l-1 4c3,1 5,1 7,1 8,0 13,-4 13,-10zm-7 -8c0,3 -2,5 -4,5 -3,0 -5,-2 -5,-6 0,-3 2,-6 5,-6 3,0 4,3 4,7zm33 10l0 -13c0,-5 -2,-9 -7,-9 -3,0 -6,2 -7,4l0 -3 -6 0 0 21 6 0 0 -12c0,-2 2,-4 4,-4 3,0 4,2 4,4l0 12 6 0zm-292 47l0 -14c0,-6 -4,-8 -11,-8 -3,0 -5,0 -8,0l1 5c2,0 4,0 6,0 4,0 5,0 5,3l0 1 -6 0c-4,0 -7,2 -7,7 0,3 3,6 7,6 3,0 5,-1 7,-3l0 3 6 0zm-7 -8c0,2 -1,4 -4,4 -2,0 -3,-1 -3,-3 0,-1 2,-2 3,-2l4 0 0 1zm32 8l0 -14c0,-5 -2,-8 -7,-8 -3,0 -6,1 -7,3l0 -3 -6 0 0 22 6 0 0 -13c0,-2 3,-4 5,-4 2,0 3,2 3,4l0 13 6 0zm27 0l0 -30 -7 0 0 11c-1,-2 -3,-3 -6,-3 -6,0 -9,5 -9,11 0,5 3,11 9,11 3,0 5,-1 6,-3l0 3 7 0zm-7 -11c0,4 -2,6 -4,6 -3,0 -5,-3 -5,-6 0,-4 2,-6 5,-6 3,0 4,2 4,6l0 0zm55 11l0 -30 -7 0 -9 16 -9 -16 -6 0 0 30 6 0 0 -18 8 12 3 0 7 -12 0 18 7 0zm25 0l0 -14c0,-6 -4,-8 -11,-8 -2,0 -5,0 -7,0l0 5c2,0 4,0 7,0 3,0 5,0 5,3l0 1 -7 0c-4,0 -7,2 -7,7 0,3 3,6 8,6 2,0 4,-1 6,-3l0 3 6 0zm-6 -8c0,2 -2,4 -4,4 -2,0 -3,-1 -3,-3 0,-1 1,-2 3,-2l4 0 0 1zm32 8l0 -14c0,-5 -2,-8 -7,-8 -3,0 -6,1 -8,3l0 -3 -6 0 0 22 7 0 0 -13c0,-2 2,-4 4,-4 2,0 3,2 3,4l0 13 7 0zm26 0l0 -22 -6 0 0 12c0,3 -3,4 -5,4 -2,0 -3,-1 -3,-3l0 -13 -7 0 0 14c0,5 3,8 8,8 3,0 5,-2 7,-4l0 4 6 0zm19 -30c-1,-1 -3,-1 -4,-1 -5,0 -8,3 -8,8l0 1 -3 0 0 5 3 0 0 17 7 0 0 -17 3 0 0 -5 -3 0 0 -1c0,-2 0,-3 2,-3 1,0 2,0 3,0l0 -4zm22 30l0 -14c0,-6 -4,-8 -11,-8 -2,0 -5,0 -8,0l1 5c2,0 4,0 7,0 3,0 4,0 4,3l0 1 -6 0c-4,0 -7,2 -7,7 0,3 3,6 7,6 3,0 5,-1 7,-3l0 3 6 0zm-7 -8c0,2 -1,4 -4,4 -2,0 -2,-1 -2,-3 0,-1 1,-2 2,-2l4 0 0 1zm28 7l-1 -5c-1,1 -2,1 -4,1 -4,0 -6,-3 -6,-6 0,-4 2,-6 6,-6 2,0 3,0 4,0l1 -4c-2,-1 -3,-1 -5,-1 -8,0 -13,5 -13,11 0,6 5,11 13,11 1,0 3,0 5,-1zm17 1l-1 -5c0,0 -1,0 -1,0 -1,0 -2,0 -2,-2l0 -11 3 0 0 -4 -3 0 0 -6 -7 0 0 6 -3 0 0 4 3 0 0 11c0,5 3,7 8,7 1,0 2,0 3,0zm25 0l0 -22 -6 0 0 12c0,3 -3,4 -5,4 -2,0 -3,-1 -3,-3l0 -13 -7 0 0 14c0,5 3,8 7,8 4,0 6,-2 8,-4l0 4 6 0zm20 -22c-1,0 -1,0 -2,0 -3,0 -5,2 -6,4l0 -4 -6 0 0 22 7 0 0 -10c0,-4 2,-7 5,-7 1,0 1,0 2,0l0 -5zm10 22l0 -22 -6 0 0 22 6 0zm0 -26l0 -5 -6 0 0 5 6 0zm27 26l0 -14c0,-5 -2,-8 -7,-8 -3,0 -6,1 -7,3l0 -3 -6 0 0 22 6 0 0 -13c0,-2 2,-4 4,-4 3,0 4,2 4,4l0 13 6 0zm26 -3l0 -19 -6 0 0 3c-2,-2 -4,-3 -6,-3 -6,0 -10,5 -10,10 0,6 4,11 10,11 2,0 5,-1 6,-3l0 2c0,3 -2,5 -7,5 -1,0 -3,0 -5,-1l-1 4c3,1 5,1 7,1 8,0 12,-3 12,-10zm-6 -8c0,4 -2,5 -5,5 -3,0 -4,-2 -4,-6 0,-3 1,-5 4,-5 3,0 5,2 5,6z"/>
  <path class="fil11" d="M334 721c0,-5 -4,-9 -10,-9l-15 0 0 29 7 0 0 -10 8 0c6,0 10,-4 10,-10zm-6 0c0,3 -2,5 -5,5l-7 0 0 -9 7 0c3,0 5,2 5,4zm31 9c0,-5 -5,-11 -11,-11 -7,0 -12,6 -12,11 0,6 5,12 12,12 6,0 11,-6 11,-12zm-7 0c0,4 -1,7 -4,7 -3,0 -5,-3 -5,-7 0,-3 2,-6 5,-6 3,0 4,3 4,6zm29 5c0,-4 -2,-5 -7,-7 -4,-1 -5,-1 -5,-3 0,0 1,-1 3,-1 2,0 5,1 7,1l1 -5c-2,0 -6,-1 -8,-1 -6,0 -9,2 -9,7 0,3 2,4 8,7 3,1 3,1 3,2 0,1 0,2 -3,2 -2,0 -5,-1 -8,-2l-1 5c3,1 6,2 9,2 6,0 10,-3 10,-7zm15 6l0 -4c-1,0 -1,0 -1,0 -2,0 -3,-1 -3,-3l0 -10 4 0 0 -4 -4 0 0 -6 -6 0 0 6 -3 0 0 4 3 0 0 11c0,5 3,7 7,7 1,0 3,-1 3,-1zm37 0l0 -5 -14 0 0 -24 -7 0 0 29 21 0zm22 0l0 -14c0,-5 -4,-8 -11,-8 -2,0 -5,1 -7,1l0 5c2,-1 4,-1 7,-1 4,0 5,1 5,3l0 2 -7 0c-4,0 -7,2 -7,6 0,4 3,7 8,7 3,0 4,-1 6,-3l0 2 6 0zm-6 -8c0,3 -2,4 -4,4 -2,0 -3,0 -3,-2 0,-2 1,-2 3,-2l4 0 0 0zm32 8l0 -21 -7 0 0 12c0,2 -2,4 -4,4 -3,0 -4,-2 -4,-4l0 -12 -6 0 0 13c0,5 2,9 7,9 3,0 6,-2 7,-4l0 3 7 0zm26 0l0 -13c0,-5 -2,-9 -7,-9 -3,0 -6,2 -7,4l0 -3 -6 0 0 21 6 0 0 -12c0,-2 2,-4 4,-4 3,0 4,2 4,4l0 12 6 0zm22 0l-1 -5c-1,0 -2,1 -4,1 -4,0 -6,-3 -6,-7 0,-3 2,-6 6,-6 2,0 3,0 4,1l1 -5c-2,0 -3,-1 -5,-1 -7,0 -12,5 -12,11 0,7 5,12 12,12 2,0 4,-1 5,-1zm26 0l0 -13c0,-5 -2,-9 -7,-9 -3,0 -6,2 -7,4l0 -11 -6 0 0 29 6 0 0 -12c0,-2 3,-4 5,-4 2,0 3,2 3,4l0 12 6 0zm-223 38c0,-5 -3,-6 -9,-9 -6,-2 -8,-3 -8,-4 0,-2 2,-3 6,-3 3,0 7,1 9,2l2 -6c-3,-1 -8,-1 -11,-1 -9,0 -12,2 -12,8 0,5 3,7 10,9 5,2 7,3 7,4 0,3 -3,3 -6,3 -4,0 -7,0 -11,-2l-2 6c5,1 9,2 13,2 7,0 12,-3 12,-9zm26 9l0 -22 -7 0 0 12c0,3 -2,4 -4,4 -2,0 -3,-1 -3,-4l0 -12 -7 0 0 13c0,6 2,9 7,9 4,0 6,-2 8,-4l0 4 6 0zm20 -22c-1,0 -1,0 -2,0 -3,0 -5,2 -6,4l0 -4 -6 0 0 22 6 0 0 -10c0,-4 2,-7 6,-7 1,0 1,0 2,0l0 -5zm23 0l-6 0 -5 15 -5 -15 -6 0 8 22 6 0 8 -22zm22 13l0 -2c0,-7 -4,-11 -10,-11 -7,0 -11,5 -11,11 0,6 5,11 13,11 3,0 5,0 7,-1l-1 -5c-2,1 -4,1 -6,1 -4,0 -6,-2 -6,-4l14 0zm-6 -4l-8 0c0,-3 2,-5 4,-5 3,0 4,2 4,5zm17 13l0 -22 -6 0 0 22 6 0zm0 -26l0 -5 -6 0 0 5 6 0zm17 26l0 -5c0,0 -1,0 -2,0 -2,0 -2,-1 -2,-3l0 -22 -7 0 0 23c0,5 4,7 8,7 1,0 2,0 3,0zm15 0l0 -5c0,0 -1,0 -2,0 -1,0 -2,-1 -2,-3l0 -22 -6 0 0 23c0,5 3,7 7,7 1,0 3,0 3,0zm23 0l0 -14c0,-6 -4,-8 -10,-8 -3,0 -6,0 -8,0l0 5c3,0 5,-1 7,-1 4,0 5,1 5,4l0 1 -6 0c-5,0 -7,2 -7,6 0,4 3,7 7,7 3,0 5,-1 6,-3l0 3 6 0zm-6 -8c0,2 -2,4 -4,4 -2,0 -3,-1 -3,-3 0,-1 1,-2 3,-2l4 0 0 1zm32 8l0 -14c0,-5 -2,-8 -7,-8 -3,0 -6,1 -7,3l0 -3 -6 0 0 22 6 0 0 -13c0,-2 2,-4 4,-4 3,0 4,2 4,4l0 13 6 0zm22 -1l-1 -5c-1,1 -2,1 -4,1 -4,0 -6,-3 -6,-6 0,-4 2,-6 6,-6 2,0 3,0 4,0l1 -4c-2,-1 -3,-1 -5,-1 -8,0 -13,4 -13,11 0,6 5,11 13,11 1,0 3,0 5,-1zm25 -8l0 -2c0,-7 -4,-11 -11,-11 -6,0 -10,5 -10,11 0,6 4,11 12,11 3,0 5,0 7,-1l-1 -5c-2,1 -4,1 -6,1 -4,0 -6,-2 -6,-4l15 0zm-6 -4l-9 0c0,-3 2,-5 4,-5 3,0 4,2 5,5z"/>
  <g id="_645929896">
   <path class="fil0 str0" d="M1392 444c0,19 -15,34 -34,34 -20,0 -35,-15 -35,-34 0,-19 15,-35 35,-35 19,0 34,16 34,35z"/>
   <path class="fil0 str0" d="M1387 462l21 20c3,4 3,10 0,13l0 0c-4,4 -10,4 -13,0l-21 -21"/>
   <line class="fil0 str1" x1="1340" y1="449" x2="1340" y2= "457" />
   <line class="fil0 str1" x1="1346" y1="445" x2="1346" y2= "457" />
   <line class="fil0 str1" x1="1351" y1="441" x2="1351" y2= "457" />
   <line class="fil0 str1" x1="1357" y1="447" x2="1357" y2= "457" />
   <line class="fil0 str1" x1="1362" y1="443" x2="1362" y2= "457" />
   <line class="fil0 str1" x1="1368" y1="439" x2="1368" y2= "457" />
   <line class="fil0 str1" x1="1374" y1="435" x2="1374" y2= "457" />
   <polyline class="fil0 str1" points="1339,442 1351,432 1357,439 1374,427 "/>
   <line class="fil0 str1" x1="1387" y1="472" x2="1399" y2= "484" />
   <path class="fil0 str0" d="M1386 444c0,16 -12,29 -28,29 -16,0 -29,-13 -29,-29 0,-16 13,-29 29,-29 16,0 28,13 28,29z"/>
  </g>
  <g id="_645931672">
   <path class="fil0 str2" d="M1573 772c0,0 0,-1 0,-1 0,0 -3,-6 -4,-9 0,0 0,0 0,0 -1,-1 -2,-2 -3,-1 -1,0 -2,1 -2,1 0,-1 -2,-2 -4,-1 0,0 -1,1 -1,2 -1,-2 -3,-2 -4,-2 -1,1 -2,2 -2,3l-4 -10c0,-1 -2,-2 -3,-2 -2,1 -2,3 -2,4l7 17c-1,0 -2,-1 -2,-2 -2,-2 -5,-3 -6,-2 -2,1 1,4 3,7 1,2 4,5 4,6 2,2 3,3 4,4 4,3 8,3 12,1 5,-2 10,-7 7,-15l0 0z"/>
   <path class="fil0 str2" d="M1520 781c0,-3 -3,-6 -6,-6l-35 0 0 -3 0 -53 35 0c3,0 6,3 6,7l0 46 0 9z"/>
   <path class="fil0 str2" d="M1561 754l0 -35 -34 0c-4,0 -7,3 -7,7l0 46 0 9c0,-3 3,-6 7,-6l9 0"/>
   <line class="fil0 str2" x1="1511" y1="730" x2="1489" y2= "730" />
   <line class="fil0 str2" x1="1511" y1="738" x2="1489" y2= "738" />
   <line class="fil0 str2" x1="1511" y1="746" x2="1489" y2= "746" />
   <line class="fil0 str2" x1="1552" y1="730" x2="1529" y2= "730" />
   <line class="fil0 str2" x1="1552" y1="738" x2="1529" y2= "738" />
   <line class="fil0 str2" x1="1541" y1="746" x2="1529" y2= "746" />
   <line class="fil0 str2" x1="1511" y1="754" x2="1489" y2= "754" />
  </g>
  <g id="_645933712">
   <path class="fil0 str3" d="M881 467l31 -31c2,-2 2,-5 0,-7l-3 -3c-2,-2 -5,-2 -7,0l-31 31 -2 12 12 -2z"/>
   <line class="fil0 str3" x1="874" y1="453" x2="884" y2= "464" />
   <line class="fil0 str3" x1="870" y1="463" x2="875" y2= "468" />
   <line class="fil0 str3" x1="880" y1="453" x2="897" y2= "436" />
   <line class="fil0 str3" x1="898" y1="429" x2="908" y2= "440" />
   <line class="fil0 str3" x1="884" y1="457" x2="902" y2= "440" />
   <path class="fil0 str3" d="M876 474c2,1 2,3 2,4 0,6 -8,11 -17,11 -10,0 -17,-5 -17,-11 0,-5 7,-10 17,-10 1,0 2,0 3,1"/>
   <path class="fil0 str3" d="M860 422c0,-4 7,-8 15,-8 9,-1 14,3 14,7 0,4 -5,8 -13,8 -7,0 -14,-4 -11,-8"/>
   <polyline class="fil0 str3" points="890,479 884,481 887,486 "/>
   <path class="fil0 str3" d="M909 469c0,1 -1,3 -1,4 -4,9 -15,12 -23,8 0,0 0,0 -1,0"/>
   <path class="fil0 str3" d="M852 464c-3,-5 -5,-11 -4,-17 1,-8 7,-15 14,-17"/>
   <polyline class="fil0 str3" points="860,437 862,430 855,427 "/>
   <path class="fil0 str3" d="M909 448c9,-1 16,4 16,10 0,3 -5,6 -11,6 -6,0 -11,-3 -11,-6 0,-4 4,-6 11,-5"/>
   <line class="fil0 str3" x1="900" y1="427" x2="911" y2= "437" />
  </g>
  <g id="_645937408">
   <g>
    <path class="fil3" d="M854 1062c0,0 0,0 0,0 -1,0 -2,-1 -1,-2 0,-2 2,-4 3,-5 1,0 1,0 1,0l7 -2c1,-1 2,0 2,1 0,0 0,1 -1,1l-7 3c-2,1 -3,2 -3,3 0,1 0,1 -1,1z"/>
    <path class="fil3" d="M881 1084l-13 0c0,0 -1,0 -1,-1 0,-1 1,-2 1,-2l13 0c2,0 3,0 4,-1 1,-1 1,-2 1,-4l-1 -15c-1,-1 -1,-2 -3,-3 0,0 0,0 0,0l-8 -3c-1,0 -1,-1 -1,-1 0,-1 1,-2 2,-1l8 3c2,0 4,3 4,5l2 15c0,0 0,0 0,0 0,3 0,5 -2,6 -1,1 -3,2 -6,2z"/>
    <path class="fil3" d="M879 1076c0,0 -1,-1 -1,-1l-1 -9c0,-1 0,-1 1,-2 1,0 1,1 1,2l2 8c0,1 -1,2 -1,2 -1,0 -1,0 -1,0z"/>
    <path class="fil3" d="M878 1041l0 0 0 0zm-9 2c-6,0 -10,-1 -10,-1 -1,-1 -1,-1 -1,-2 0,-1 1,-1 2,-1 0,0 7,3 17,1 0,-3 -2,-5 -4,-6 -1,0 -1,-1 -1,-2 1,-1 1,-1 2,-1 4,2 6,6 6,10 0,0 -1,1 -1,1 -4,1 -7,1 -10,1z"/>
    <path class="fil3" d="M862 1041c-1,0 -2,0 -2,-1 0,-5 4,-9 8,-10 1,0 2,1 2,2 0,0 -1,1 -1,1 -4,1 -6,4 -6,7 0,1 0,1 -1,1z"/>
    <path class="fil3" d="M867 1039c0,0 -1,-1 -1,-2 0,0 -1,-6 5,-9 0,0 1,0 2,1 0,1 0,1 -1,2 -2,0 -2,2 -3,3 0,2 0,3 0,3 0,1 -1,2 -1,2 0,0 0,0 -1,0z"/>
    <path class="fil3" d="M870 1053c-4,0 -7,-3 -7,-7l0 -4c0,-1 0,-2 1,-2 1,0 1,1 1,2l0 4c0,2 2,4 5,4 2,0 4,-2 4,-4l0 -4c0,-1 1,-2 1,-2 1,0 2,1 2,2l0 4c0,4 -3,7 -7,7z"/>
    <path class="fil3" d="M842 1081l24 0 -6 -19 -25 0 7 19zm26 3l-27 0c-1,0 -1,0 -2,-1l-7 -22c-1,0 0,-1 0,-1 0,-1 0,-1 1,-1l28 0c0,0 1,1 1,1l8 22c0,1 0,1 0,2 -1,0 -1,0 -2,0z"/>
    <path class="fil3" d="M866 1078c0,0 -1,0 -1,-1 0,-1 0,-2 1,-2l15 -2c1,0 2,0 2,1 0,1 -1,2 -1,2l-16 2c0,0 0,0 0,0z"/>
    <path class="fil3" d="M882 1039c0,0 0,0 0,0 -1,-1 -1,-2 -1,-2l5 -12c0,-2 2,-3 4,-4l5 -2c1,0 2,1 2,1 0,1 0,2 -1,2l-5 2c-1,0 -2,1 -3,2l-4 12c0,0 -1,1 -2,1z"/>
    <path class="fil3" d="M916 1062c-1,0 -2,0 -3,-1 -2,-1 -2,-2 -2,-4l-3 -24c0,-1 1,-2 2,-2 0,0 1,1 1,2l2 24c1,1 1,2 1,2 1,0 2,1 2,1 2,-1 3,-2 3,-3l-3 -29c0,-2 -1,-3 -2,-3 0,0 0,0 0,0l-8 -3c-1,0 -1,-1 -1,-2 1,0 1,-1 2,-1l7 3c3,1 4,3 5,5 0,0 0,0 0,0l3 29c0,3 -2,6 -5,6 -1,0 -1,0 -1,0z"/>
    <path class="fil3" d="M901 1019c-4,0 -7,-3 -7,-7l0 -4c0,0 1,-1 2,-1 0,0 1,1 1,1l0 4c0,3 2,5 4,5 3,0 4,-2 4,-5l0 -4c0,0 1,-1 2,-1 1,0 1,1 1,1l0 4c0,4 -3,7 -7,7z"/>
    <path class="fil3" d="M901 1048c-1,0 -1,-1 -1,-1l0 -18c0,-1 0,-1 1,-1 1,0 1,0 1,1l0 18c0,0 0,1 -1,1z"/>
    <path class="fil3" d="M901 1026c-1,0 -1,-1 -1,-2l0 0c0,-1 0,-2 1,-2 1,0 1,1 1,2l0 0c0,1 0,2 -1,2z"/>
    <path class="fil3" d="M880 1053c0,0 -1,0 -1,-1 -1,0 -1,-1 0,-2l6 -4c1,-1 1,-2 1,-2l5 -12c1,-1 1,-1 2,-1 1,1 1,1 1,2l-5 12c0,0 0,0 0,0 -1,1 -1,2 -2,3 0,0 0,0 0,0l-6 5c0,0 -1,0 -1,0z"/>
    <path class="fil3" d="M912 1084c-1,0 -2,0 -2,-1l0 -27c0,-1 1,-2 2,-2 1,0 1,1 1,2l0 27c0,1 0,1 -1,1z"/>
    <path class="fil3" d="M899 1057c-6,0 -9,-2 -9,-2 0,0 -1,0 -1,-1l0 -17c0,-1 1,-1 2,-1 1,0 1,0 1,1l0 16c2,1 6,2 13,1 1,-1 2,0 2,1 0,1 0,1 -1,1 -3,1 -5,1 -7,1z"/>
    <path class="fil3" d="M902 1084c-1,0 -2,0 -2,-1l0 -19c0,-1 1,-1 2,-1 1,0 1,0 1,1l0 19c0,1 0,1 -1,1z"/>
    <path class="fil3" d="M891 1060c-1,0 -2,0 -2,-1l0 -5c0,-1 1,-1 2,-1 1,0 1,0 1,1l0 5c0,1 0,1 -1,1z"/>
   </g>
   <path class="fil3" d="M901 1002c-4,0 -7,3 -7,7l0 4c0,1 1,1 2,1 0,0 1,0 1,-1l0 -4c0,-2 2,-4 4,-4 3,0 4,2 4,4l0 4c0,1 1,1 2,1 1,0 1,0 1,-1l0 -4c0,-4 -3,-7 -7,-7z"/>
  </g>
  <path class="fil4" d="M1127 875c-69,0 -125,-56 -125,-125 0,-69 56,-125 125,-125 69,0 125,56 125,125 0,69 -56,125 -125,125z"/>
  <g id="_645942568">
   <path class="fil3" d="M1406 1091l-17 0c-2,0 -4,-1 -5,-1 -4,0 -8,0 -8,0 -1,0 -2,0 -2,-1 0,-1 1,-2 2,-2 0,0 5,-1 8,0 2,0 3,0 5,0l17 0c2,0 4,-1 4,-3l0 -20c0,-1 -1,-2 -1,-2 -1,-1 -2,-1 -3,-1l-12 0c-1,0 -1,-1 -1,-1 -1,-1 -1,-2 0,-2 0,0 5,-4 5,-9 1,-2 1,-4 1,-6 0,-1 0,-1 -1,-2 0,0 -1,-1 -2,-1 -1,0 -2,1 -3,3 0,4 -2,9 -5,11 -1,1 -2,1 -3,2 -1,1 -1,1 -1,1 -1,5 -4,9 -8,10 -1,0 -2,-1 -2,-2 0,0 0,-1 1,-1 2,-1 4,-3 6,-8 0,-1 1,-2 3,-3 0,0 1,-1 2,-1 2,-2 3,-5 4,-10 1,-3 3,-5 6,-5 2,0 3,1 4,2 2,1 2,3 2,4 0,2 0,4 -1,6 0,4 -2,6 -3,8l8 0c0,0 0,0 0,0 2,0 3,1 5,2 1,2 2,3 2,5l0 20c0,4 -3,7 -7,7z"/>
   <path class="fil3" d="M1374 1065l-6 0c0,0 -1,0 -1,0l1 25c0,0 0,0 0,0l6 0c0,0 0,0 0,0l0 -25c0,0 0,0 0,0zm-6 26l0 0 0 0zm0 2c-1,0 -2,0 -2,-1 -1,-1 -1,-1 -1,-2l-1 -25c0,-1 1,-2 1,-2 1,-1 2,-1 2,-1l7 -1c0,0 1,1 2,1 0,1 1,2 1,3l0 24c0,1 0,2 -1,3 0,1 -1,1 -2,1l-6 0c0,0 0,0 0,0z"/>
   <path class="fil3" d="M1385 1080c0,0 -1,0 -1,-1 0,0 0,-1 1,-2l1 0c4,-2 6,-5 6,-9l0 -9c0,-1 1,-2 2,-2 1,0 2,1 2,2l0 9c0,5 -4,10 -8,12l-2 0c0,0 0,0 -1,0z"/>
   <path class="fil3" d="M1359 1089l-34 0c-1,0 -2,-1 -2,-2l0 -89c0,-1 1,-2 2,-2l65 0c1,0 1,1 1,2l0 27c0,1 0,1 -1,1 -1,0 -2,0 -2,-1l0 -25 -61 0 0 86 32 0c1,0 2,1 2,1 0,1 -1,2 -2,2z"/>
   <path class="fil3" d="M1336 1015l0 0c0,0 -1,0 -1,-1l-2 -1c0,-1 0,-2 0,-3 1,0 2,0 3,0l0 1 5 -4c0,-1 1,-1 2,0 1,0 1,1 0,2l-6 5c0,1 0,1 -1,1z"/>
   <path class="fil3" d="M1379 1009l-28 0c-1,0 -2,-1 -2,-1 0,-1 1,-2 2,-2l28 0c1,0 2,1 2,2 0,0 -1,1 -2,1z"/>
   <path class="fil3" d="M1360 1015l-9 0c-1,0 -2,-1 -2,-2 0,0 1,-1 2,-1l9 0c1,0 1,1 1,1 0,1 0,2 -1,2z"/>
   <path class="fil3" d="M1336 1035c0,0 -1,-1 -1,-1l-2 -2c0,0 0,-1 0,-2 1,-1 2,-1 3,0l0 1 5 -5c0,0 1,0 2,0 1,1 1,2 0,3l-6 5c0,0 0,1 -1,1z"/>
   <path class="fil3" d="M1370 1029l-19 0c-1,0 -2,-1 -2,-2 0,-1 1,-1 2,-1l19 0c1,0 2,0 2,1 0,1 -1,2 -2,2z"/>
   <path class="fil3" d="M1360 1035l-9 0c-1,0 -2,-1 -2,-2 0,-1 1,-2 2,-2l9 0c1,0 1,1 1,2 0,1 0,2 -1,2z"/>
   <path class="fil3" d="M1336 1054l0 0c0,0 -1,0 -1,0l-2 -2c0,-1 0,-2 0,-2 1,-1 2,-1 3,0l0 0 5 -4c0,-1 1,-1 2,0 1,1 1,2 0,2l-6 6c0,0 0,0 -1,0z"/>
   <path class="fil3" d="M1379 1049l-28 0c-1,0 -2,-1 -2,-2 0,-1 1,-2 2,-2l28 0c1,0 2,1 2,2 0,1 -1,2 -2,2z"/>
   <path class="fil3" d="M1360 1054l-9 0c-1,0 -2,0 -2,-1 0,-1 1,-2 2,-2l9 0c1,0 1,1 1,2 0,1 0,1 -1,1z"/>
   <path class="fil3" d="M1336 1074l0 0c0,0 -1,0 -1,-1l-2 -1c0,-1 0,-2 0,-3 1,0 2,0 3,0l0 1 5 -4c0,-1 1,-1 2,0 1,0 1,1 0,2l-6 5c0,1 0,1 -1,1z"/>
   <path class="fil3" d="M1360 1068l-9 0c-1,0 -2,0 -2,-1 0,-1 1,-2 2,-2l9 0c1,0 1,1 1,2 0,1 0,1 -1,1z"/>
   <path class="fil3" d="M1360 1074l-9 0c-1,0 -2,-1 -2,-2 0,0 1,-1 2,-1l9 0c1,0 1,1 1,1 0,1 0,2 -1,2z"/>
   <path class="fil3" d="M1413 1039c-1,0 -1,0 -1,-1l0 0c0,-1 0,-2 1,-2 1,0 2,1 2,2l0 0c0,1 -1,1 -2,1z"/>
   <path class="fil3" d="M1413 1047c-1,0 -1,0 -1,-1l0 0c0,-1 0,-2 1,-2 1,0 2,1 2,2l0 0c0,1 -1,1 -2,1z"/>
   <path class="fil3" d="M1409 1043l0 0c-1,0 -1,0 -1,-1 0,-1 0,-2 1,-2l0 0c1,0 2,1 2,2 0,1 -1,1 -2,1z"/>
   <path class="fil3" d="M1417 1043l0 0c-1,0 -1,0 -1,-1 0,-1 0,-2 1,-2l0 0c1,0 2,1 2,2 0,1 -1,1 -2,1z"/>
   <path class="fil3" d="M1381 1031c-1,0 -1,-1 -1,-2l0 0c0,-1 0,-2 1,-2 1,0 2,1 2,2l0 0c0,1 -1,2 -2,2z"/>
   <path class="fil3" d="M1381 1039c-1,0 -1,-1 -1,-2l0 0c0,-1 0,-2 1,-2 1,0 2,1 2,2l0 0c0,1 -1,2 -2,2z"/>
   <path class="fil3" d="M1377 1035l0 0c-1,0 -1,-1 -1,-2 0,-1 0,-2 1,-2l0 0c1,0 2,1 2,2 0,1 -1,2 -2,2z"/>
   <path class="fil3" d="M1385 1035l0 0c-1,0 -1,-1 -1,-2 0,-1 0,-2 1,-2l0 0c1,0 2,1 2,2 0,1 -1,2 -2,2z"/>
   <path class="fil3" d="M1406 1015c-1,0 -1,-1 -1,-2l0 0c0,-1 0,-2 1,-2 1,0 2,1 2,2l0 0c0,1 -1,2 -2,2z"/>
   <path class="fil3" d="M1406 1023c-1,0 -1,-1 -1,-2l0 0c0,-1 0,-2 1,-2 1,0 2,1 2,2l0 0c0,1 -1,2 -2,2z"/>
   <path class="fil3" d="M1402 1018l0 0c-1,0 -2,0 -2,-1 0,-1 1,-2 2,-2l0 0c1,0 2,1 2,2 0,1 -1,1 -2,1z"/>
   <path class="fil3" d="M1410 1018l0 0c-1,0 -1,0 -1,-1 0,-1 0,-2 1,-2l0 0c1,0 2,1 2,2 0,1 -1,1 -2,1z"/>
   <path class="fil3" d="M1407 1030c0,1 -1,2 -2,2 -1,0 -1,-1 -1,-2 0,-1 0,-2 1,-2 1,0 2,1 2,2z"/>
  </g>
  <path class="fil13" d="M1803 1243c0,-7 -6,-13 -13,-13 -7,0 -13,6 -13,13 0,7 6,13 13,13 7,0 13,-6 13,-13zm-2 0c0,6 -5,11 -11,11 -7,0 -11,-5 -11,-11 0,-6 4,-12 11,-12 6,0 11,6 11,12zm-7 6l0 -2c-1,1 -2,1 -3,1 -3,0 -5,-2 -5,-5 0,-3 2,-5 5,-5 1,0 2,0 3,0l0 -1c-1,-1 -2,-1 -3,-1 -4,0 -7,3 -7,7 0,3 3,6 7,6 1,0 2,0 3,0zm38 6l0 -3 -14 0c0,-2 2,-4 8,-7 4,-3 6,-5 6,-8 0,-4 -3,-7 -9,-7 -3,0 -6,1 -8,1l1 3c2,0 4,-1 6,-1 5,0 7,1 7,4 0,2 -2,4 -6,6 -6,4 -8,6 -8,11l0 1 17 0zm23 -12c0,-7 -3,-13 -9,-13 -7,0 -10,6 -10,13 0,7 3,13 10,13 6,0 9,-6 9,-13zm-3 0c0,5 -2,10 -6,10 -5,0 -7,-5 -7,-10 0,-5 2,-10 7,-10 4,0 6,5 6,10zm25 12l0 -3 -14 0c0,-2 2,-4 8,-7 4,-3 6,-5 6,-8 0,-4 -3,-7 -9,-7 -3,0 -6,1 -8,1l0 3c3,0 5,-1 7,-1 4,0 6,1 6,4 0,2 -1,4 -5,6 -6,4 -9,6 -9,11l0 1 18 0zm14 0l0 -24 -4 0 -7 1 1 3 6 -2 0 22 4 0zm35 -7c0,-3 -1,-5 -5,-6 3,-1 4,-3 4,-5 0,-4 -3,-7 -8,-7l-11 0 0 25 13 0c4,0 7,-3 7,-7zm-3 0c0,3 -2,4 -5,4l-8 0 0 -8 8 0c3,0 5,2 5,4zm-1 -11c0,3 -2,4 -5,4l-7 0 0 -8 7 0c3,0 5,1 5,4zm12 18l0 -18 -3 0 0 18 3 0zm0 -21l0 -4 -3 0 0 4 3 0zm15 5l0 -2c-2,0 -5,2 -6,4l0 -4 -3 0 0 18 3 0 0 -9c0,-3 3,-7 6,-7zm11 16l0 -2 -2 0c-1,0 -2,-1 -2,-3l0 -20 -3 0 0 20c0,4 2,5 5,5l2 0zm18 0l0 -12c0,-4 -3,-6 -8,-6 -2,0 -4,0 -6,0l0 3c2,-1 4,-1 6,-1 4,0 5,2 5,4l0 2 -6 0c-4,0 -6,2 -6,5 0,3 3,5 6,5 3,0 5,0 6,-2l0 2 3 0zm-3 -7c0,3 -2,5 -5,5 -2,0 -4,-1 -4,-3 0,-2 1,-3 4,-3l5 0 0 1zm21 2c0,-2 -1,-3 -6,-5 -3,-2 -4,-2 -4,-4 0,-1 1,-2 4,-2 1,0 3,1 5,1l0 -3c-2,0 -4,0 -6,0 -4,0 -6,1 -6,4 0,3 1,4 5,6 4,2 5,2 5,3 0,2 -1,3 -4,3 -2,0 -4,-1 -6,-2l-1 3c2,1 5,1 7,1 4,0 7,-2 7,-5zm21 -4c0,-5 -3,-9 -9,-9 -5,0 -9,4 -9,9 0,5 4,9 9,9 6,0 9,-4 9,-9zm-3 0c0,4 -2,7 -6,7 -3,0 -5,-3 -5,-7 0,-4 2,-7 5,-7 4,0 6,3 6,7zm17 -16c-1,-1 -2,-1 -3,-1 -3,0 -5,2 -5,6l0 2 -3 0 0 2 3 0 0 16 3 0 0 -16 4 0 0 -2 -4 0 0 -2c0,-2 1,-3 3,-3 0,0 1,0 2,0l0 -2zm11 25l0 -2c0,0 -1,0 -2,0 -1,0 -2,-1 -2,-3l0 -11 4 0 0 -2 -4 0 0 -5 -3 0 0 5 -2 0 0 2 2 0 0 11c0,4 2,5 5,5 1,0 2,0 2,0z"/>
 </g>
</svg>
